<svg width="28" height="28" viewBox="0 0 28 28" fill="none" xmlns="http://www.w3.org/2000/svg">
<g id="ic-close">
<path id="Vector (Stroke)" fill-rule="evenodd" clip-rule="evenodd" d="M6.38128 6.38128C6.72299 6.03957 7.27701 6.03957 7.61872 6.38128L14 12.7626L20.3813 6.38128C20.723 6.03957 21.2771 6.03957 21.6188 6.38128C21.9605 6.72299 21.9605 7.27701 21.6188 7.61872L15.2375 14L21.6187 20.3812C21.9604 20.7229 21.9604 21.277 21.6187 21.6187C21.277 21.9604 20.7229 21.9604 20.3812 21.6187L14 15.2375L7.61872 21.6188C7.27701 21.9605 6.72299 21.9605 6.38128 21.6188C6.03957 21.2771 6.03957 20.723 6.38128 20.3813L12.7626 14L6.38128 7.61872C6.03957 7.27701 6.03957 6.72299 6.38128 6.38128Z" fill="#111111"/>
</g>
</svg>
