<svg width="24" height="24" viewBox="0 0 24 24" fill="none" xmlns="http://www.w3.org/2000/svg">
<g id="ic-video-fill">
<path id="Vector (Stroke)" fill-rule="evenodd" clip-rule="evenodd" d="M2.25 12C2.25 6.61522 6.61522 2.25 12 2.25C17.3848 2.25 21.75 6.61522 21.75 12C21.75 17.3848 17.3848 21.75 12 21.75C6.61522 21.75 2.25 17.3848 2.25 12ZM9.63048 8.34735C9.86561 8.21422 10.1542 8.21786 10.3859 8.35688L15.3859 11.3569C15.6118 11.4924 15.75 11.7366 15.75 12C15.75 12.2634 15.6118 12.5076 15.3859 12.6431L10.3859 15.6431C10.1542 15.7821 9.86561 15.7858 9.63048 15.6526C9.39534 15.5195 9.25 15.2702 9.25 15V9C9.25 8.7298 9.39534 8.48048 9.63048 8.34735Z" fill="#111111"/>
</g>
</svg>
