<svg width="24" height="24" viewBox="0 0 24 24" fill="none" xmlns="http://www.w3.org/2000/svg">
<g id="ic-warning-circle-fill">
<path id="Exclude" fill-rule="evenodd" clip-rule="evenodd" d="M12 21.7578C17.3848 21.7578 21.75 17.3926 21.75 12.0078C21.75 6.62304 17.3848 2.25781 12 2.25781C6.61522 2.25781 2.25 6.62304 2.25 12.0078C2.25 17.3926 6.61522 21.7578 12 21.7578ZM12.7451 8.45312C12.7451 8.03891 12.4093 7.70312 11.9951 7.70312C11.5809 7.70312 11.2451 8.03891 11.2451 8.45312V12.4531C11.2451 12.8673 11.5809 13.2031 11.9951 13.2031C12.4093 13.2031 12.7451 12.8673 12.7451 12.4531V8.45312ZM11.9453 14.7031C11.5311 14.7031 11.1953 15.0389 11.1953 15.4531V15.5527C11.1953 15.9658 11.5293 16.3011 11.9424 16.3027L12.042 16.3031C12.2414 16.3039 12.4329 16.2252 12.5742 16.0845C12.7155 15.9438 12.7949 15.7525 12.7949 15.5531V15.4531C12.7949 15.0389 12.4591 14.7031 12.0449 14.7031H11.9453Z" fill="#EF1010"/>
</g>
</svg>
