<svg width="120" height="16" viewBox="0 0 120 16" fill="none" xmlns="http://www.w3.org/2000/svg">
<g id="File type=svg" clip-path="url(#clip0_203_10117)">
<path id="Vector" d="M9.88807 15.2125H0.271539C0.23639 15.2131 0.201463 15.2067 0.168766 15.1937C0.136069 15.1805 0.106247 15.1611 0.0810133 15.1363C0.0557797 15.1115 0.0356323 15.0819 0.0217293 15.0491C0.0078262 15.0164 0.000441633 14.9813 0 14.9456V1.05215C0.000618503 1.01665 0.00813333 0.981625 0.0221152 0.949072C0.0360971 0.916518 0.0562722 0.887072 0.081488 0.862418C0.106704 0.837765 0.136467 0.818385 0.169076 0.805385C0.201685 0.792385 0.236503 0.786025 0.271539 0.786665H9.8908V3.94089H3.84159C3.80642 3.94017 3.77145 3.94651 3.73872 3.95956C3.70598 3.97261 3.67613 3.99211 3.65087 4.01693C3.62562 4.04175 3.60547 4.07139 3.59161 4.10415C3.57773 4.1369 3.57041 4.17212 3.57005 4.20776V6.09026C3.57041 6.1259 3.57773 6.16112 3.59161 6.19387C3.60547 6.22662 3.62562 6.25627 3.65087 6.28109C3.67613 6.30591 3.70598 6.3254 3.73872 6.33845C3.77145 6.3515 3.80642 6.35785 3.84159 6.35712H8.97093V9.51206H3.84159C3.80642 9.51133 3.77145 9.51766 3.73872 9.53073C3.70598 9.54373 3.67613 9.56327 3.65087 9.58807C3.62562 9.61287 3.60547 9.64253 3.59161 9.67527C3.57773 9.70807 3.57041 9.74326 3.57005 9.77893V11.7879C3.57041 11.8236 3.57773 11.8588 3.59161 11.8916C3.60547 11.9243 3.62562 11.954 3.65087 11.9788C3.67613 12.0036 3.70598 12.0231 3.73872 12.0361C3.77145 12.0492 3.80642 12.0555 3.84159 12.0548H9.88873L9.88807 15.2125Z" fill="#FE4141"/>
<path id="Vector_2" d="M21.8329 15.212H12.6929C12.6578 15.2128 12.6228 15.2064 12.5901 15.1934C12.5573 15.1804 12.5275 15.1608 12.5023 15.136C12.477 15.1112 12.4569 15.0816 12.443 15.0488C12.4291 15.016 12.4218 14.9808 12.4214 14.9452V1.05171C12.4218 1.01607 12.4291 0.980853 12.443 0.948093C12.4569 0.915339 12.477 0.885693 12.5023 0.860879C12.5275 0.836059 12.5573 0.816559 12.5901 0.803513C12.6228 0.790459 12.6578 0.784119 12.6929 0.784846H15.9963V12.0564H22.1059V14.9452C22.1054 14.9808 22.098 15.016 22.0841 15.0487C22.0702 15.0814 22.0501 15.111 22.0249 15.1358C21.9996 15.1606 21.9698 15.1801 21.9371 15.1932C21.9044 15.2063 21.8695 15.2127 21.8343 15.212" fill="#FE4141"/>
<path id="Vector_3" d="M33.6489 1.17457L29.4577 9.33527V14.9449C29.4573 14.9806 29.4499 15.0158 29.4361 15.0485C29.4222 15.0813 29.4021 15.1109 29.3768 15.1358C29.3516 15.1606 29.3217 15.1801 29.289 15.1931C29.2563 15.2062 29.2213 15.2125 29.1861 15.2118H26.1537C26.1185 15.2125 26.0835 15.2062 26.0508 15.1931C26.0181 15.1801 25.9882 15.1606 25.963 15.1358C25.9377 15.1109 25.9176 15.0813 25.9037 15.0485C25.8898 15.0158 25.8825 14.9806 25.8821 14.9449V9.33527L21.6849 1.17527C21.6643 1.13416 21.6545 1.08836 21.6565 1.04231C21.6585 0.996253 21.6723 0.951507 21.6963 0.912413C21.7205 0.87332 21.7541 0.841193 21.7941 0.819167C21.8341 0.797133 21.879 0.785933 21.9245 0.78666H25.3866L27.6831 5.97127L29.9498 0.78666H33.4119C33.4574 0.785873 33.5023 0.797 33.5423 0.818947C33.5822 0.840893 33.6159 0.872927 33.6401 0.91194C33.6643 0.950953 33.6781 0.995627 33.6802 1.04164C33.6823 1.08765 33.6727 1.13344 33.6523 1.17457" fill="#FE4141"/>
<path id="Vector_4" d="M46.0522 5.42789C46.0559 6.22479 45.8547 7.00891 45.4684 7.70311C45.0673 8.42131 44.4787 9.01357 43.7672 9.41504C42.9454 9.86997 42.0191 10.0954 41.0831 10.0684H38.8979V15.2132H35.5953C35.5601 15.2139 35.5251 15.2076 35.4923 15.1945C35.4596 15.1814 35.4298 15.162 35.4045 15.1371C35.3793 15.1123 35.3591 15.0826 35.3453 15.0499C35.3314 15.0172 35.3241 14.9819 35.3237 14.9463V1.05213C35.3241 1.01652 35.3315 0.981346 35.3454 0.948632C35.3593 0.915919 35.3795 0.886306 35.4047 0.861512C35.4299 0.836712 35.4597 0.817206 35.4925 0.804126C35.5251 0.791039 35.5601 0.784632 35.5953 0.785272H41.0878C42.0223 0.758239 42.9473 0.981739 43.7693 1.43317C44.4796 1.83229 45.067 2.42292 45.4663 3.13959C45.853 3.83734 46.0539 4.62495 46.0495 5.42514M42.4774 5.42995C42.4784 5.17768 42.4145 4.92949 42.2921 4.70983C42.1644 4.48269 41.9762 4.29654 41.749 4.17267C41.4958 4.03378 41.2113 3.96409 40.9235 3.97045H38.8924V6.88191H40.9235C41.2113 6.88824 41.4958 6.81857 41.749 6.67971C41.9753 6.55651 42.1634 6.37194 42.2921 6.14664C42.4149 5.92912 42.4788 5.6826 42.4774 5.43202" fill="#FE4141"/>
<path id="Vector_5" d="M57.6447 15.212H48.0254C47.9902 15.2127 47.9553 15.2063 47.9226 15.1932C47.89 15.1801 47.8601 15.1606 47.8349 15.1358C47.8096 15.111 47.7895 15.0814 47.7756 15.0487C47.7617 15.016 47.7543 14.9808 47.7539 14.9452V1.0517C47.7543 1.01609 47.7617 0.980906 47.7756 0.948193C47.7895 0.91548 47.8096 0.885873 47.8349 0.861073C47.8601 0.836273 47.89 0.816773 47.9226 0.803686C47.9553 0.790606 47.9902 0.784199 48.0254 0.784833H57.6447V3.94044H51.5975C51.5623 3.93971 51.5274 3.94605 51.4946 3.95911C51.4619 3.97215 51.432 3.99165 51.4068 4.01647C51.3815 4.04129 51.3614 4.07093 51.3475 4.10369C51.3336 4.13645 51.3263 4.17166 51.326 4.20731V6.0898C51.3263 6.12545 51.3336 6.16066 51.3475 6.19342C51.3614 6.22617 51.3815 6.25582 51.4068 6.28063C51.432 6.30545 51.4619 6.32495 51.4946 6.338C51.5274 6.35105 51.5623 6.35739 51.5975 6.35667H56.7268V9.51156H51.5975C51.5623 9.51083 51.5274 9.51723 51.4946 9.53023C51.4619 9.54329 51.432 9.56283 51.4068 9.58763C51.3815 9.61243 51.3614 9.64209 51.3475 9.67483C51.3336 9.70756 51.3263 9.74283 51.326 9.77843V11.7875C51.3263 11.8232 51.3336 11.8584 51.3475 11.8911C51.3614 11.9239 51.3815 11.9535 51.4068 11.9784C51.432 12.0032 51.4619 12.0226 51.4946 12.0357C51.5274 12.0488 51.5623 12.0551 51.5975 12.0544H57.6447V15.212Z" fill="#FE4141"/>
<path id="Vector_6" d="M70.7367 10.631C70.626 11.3498 70.3947 12.0441 70.0533 12.6841C69.748 13.2592 69.3313 13.7657 68.8273 14.1732C68.3353 14.5642 67.776 14.8594 67.178 15.0439C66.5445 15.2384 65.8859 15.3351 65.2241 15.3307C64.4776 15.3522 63.7346 15.2195 63.0404 14.9406C62.3462 14.6616 61.7153 14.2423 61.1863 13.7082C60.578 13.128 60.1544 12.3769 59.9699 11.5513C59.7786 10.5406 59.6917 9.51256 59.7105 8.48369V7.51389C59.6919 6.48345 59.7788 5.45381 59.9699 4.44152C60.1535 3.61415 60.5771 2.86133 61.1863 2.27978C61.6999 1.76033 62.3096 1.34872 62.9805 1.06857C63.6948 0.789881 64.4555 0.653721 65.2207 0.667588C65.898 0.65961 66.5724 0.757988 67.22 0.959215C67.81 1.14579 68.3607 1.44098 68.8453 1.82997C69.34 2.23603 69.752 2.73686 70.056 3.30391C70.4007 3.94629 70.6313 4.64453 70.7393 5.36729H67.306C67.2493 5.36697 67.1933 5.34845 67.1473 5.31437C67.1013 5.2803 67.0673 5.2324 67.0493 5.17747C66.94 4.82631 66.7493 4.50663 66.4936 4.24481C66.3223 4.09473 66.1236 3.98036 65.9087 3.90825C65.6937 3.83613 65.4669 3.8077 65.2411 3.82457C64.9579 3.81991 64.6769 3.87739 64.4177 3.99308C64.193 4.09151 63.9934 4.24038 63.8339 4.42845C63.7009 4.59889 63.598 4.79132 63.5297 4.99726C63.433 5.32579 63.3726 5.6642 63.3498 6.00626C63.3045 6.45791 63.2819 7.12276 63.2819 8.00089C63.2607 8.82243 63.3041 9.64443 63.4116 10.459C63.4683 10.853 63.6114 11.229 63.8305 11.5595C64.0005 11.7671 64.2167 11.9309 64.4613 12.0376C64.7059 12.1442 64.972 12.1906 65.2377 12.173C65.6902 12.2038 66.1365 12.0528 66.48 11.7528C66.7407 11.4931 66.9347 11.173 67.046 10.8202C67.064 10.7652 67.098 10.7173 67.144 10.6832C67.19 10.6492 67.246 10.6306 67.3027 10.6303L70.7367 10.631Z" fill="#FE4141"/>
<path id="Vector_7" d="M82.6652 10.8003C82.6858 11.6766 82.4212 12.5354 81.9118 13.244C81.3898 13.9458 80.6845 14.4856 79.8752 14.8026C78.9752 15.164 78.0145 15.3436 77.0465 15.3315C75.9838 15.3514 74.9238 15.208 73.9032 14.9064C73.0045 14.6187 72.1892 14.1127 71.5278 13.4325L73.6418 11.3361C73.6918 11.2888 73.7572 11.2618 73.8252 11.2601C73.8932 11.2585 73.9598 11.2823 74.0112 11.3272C74.3752 11.6132 74.7932 11.8198 75.2392 11.9338C75.8345 12.0967 76.4492 12.1781 77.0658 12.1759C78.4558 12.1759 79.1512 11.744 79.1512 10.8801C79.1612 10.7259 79.1405 10.5712 79.0912 10.4251C79.0412 10.279 78.9632 10.1444 78.8618 10.0292C78.5925 9.79836 78.2558 9.66289 77.9038 9.64343L76.1478 9.39582C75.0605 9.30969 74.0325 8.86076 73.2238 8.11922C72.8745 7.72829 72.6058 7.27029 72.4345 6.77229C72.2632 6.27429 72.1925 5.74649 72.2258 5.22019C72.2132 4.3906 72.4365 3.5748 72.8698 2.87068C73.3192 2.16272 73.9612 1.6009 74.7172 1.2523C75.6018 0.845318 76.5658 0.645717 77.5365 0.668358C78.4898 0.650711 79.4392 0.790085 80.3485 1.08103C81.1372 1.34711 81.8552 1.79435 82.4452 2.38784L80.3825 4.43541C80.3325 4.48305 80.2672 4.51015 80.1985 4.51142C80.1298 4.5127 80.0632 4.48804 80.0118 4.44229C79.7192 4.18571 79.3698 4.00429 78.9932 3.91338C78.4812 3.80643 77.9598 3.75661 77.4372 3.76481C76.9665 3.73124 76.5012 3.87586 76.1298 4.17061C75.9925 4.28268 75.8805 4.42409 75.8032 4.5848C75.7252 4.74552 75.6838 4.92159 75.6805 5.10051C75.6805 5.22682 75.7058 5.35184 75.7558 5.46763C75.8052 5.58343 75.8785 5.68748 75.9698 5.77318C76.2485 6.02094 76.5985 6.17037 76.9678 6.19893L78.7238 6.43621C79.7778 6.52379 80.7792 6.94209 81.5872 7.63296C81.9665 7.99622 82.2498 8.45036 82.4105 8.95356C82.5918 9.55109 82.6778 10.174 82.6652 10.7989" fill="#FE4141"/>
<path id="Vector_8" d="M115.248 15.3332C114.249 15.3332 113.171 14.8636 112.273 14.0146H112.193L111.933 15.0803H109.637V0.666626H112.572V4.29714L112.492 5.92274C113.371 5.20025 114.489 4.71257 115.587 4.71257C118.343 4.71257 120 6.75363 120 9.84223C120 13.3282 117.704 15.3332 115.248 15.3332ZM114.589 13.1476C115.947 13.1476 116.985 12.1 116.985 9.89643C116.985 7.96376 116.306 6.89809 114.769 6.89809C114.01 6.89809 113.331 7.24129 112.572 7.94569V12.389C113.271 12.949 113.99 13.1476 114.589 13.1476Z" fill="#111111"/>
<path id="Vector_9" d="M101.661 15.3333C99.6642 15.3333 98.3462 14.0508 98.3462 12.3349C98.3462 10.1675 100.283 9.02953 104.796 8.596C104.736 7.6026 104.257 6.844 102.879 6.844C101.841 6.844 100.842 7.2594 99.8042 7.80127L98.7455 6.04925C100.064 5.3087 101.661 4.71265 103.418 4.71265C106.254 4.71265 107.712 6.24794 107.712 9.174V15.0804H105.315L105.116 13.9967H105.036C104.057 14.7553 102.939 15.3333 101.661 15.3333ZM102.62 13.2561C103.458 13.2561 104.077 12.8949 104.796 12.2627V10.2216C102.06 10.5287 101.142 11.2151 101.142 12.1181C101.142 12.9129 101.761 13.2561 102.62 13.2561Z" fill="#111111"/>
<path id="Vector_10" d="M88 15.0803V1.69617H90.9553V12.8406H96.966V15.0803H88Z" fill="#111111"/>
</g>
<defs>
<clipPath id="clip0_203_10117">
<rect width="120" height="16" fill="white"/>
</clipPath>
</defs>
</svg>
