<svg width="180" height="24" viewBox="0 0 180 24" fill="none" xmlns="http://www.w3.org/2000/svg">
<path d="M14.8321 22.8189H0.407308C0.354585 22.8199 0.302195 22.8103 0.253149 22.7907C0.204104 22.771 0.159371 22.7418 0.12152 22.7046C0.0836695 22.6674 0.0534485 22.623 0.0325939 22.5739C0.0117393 22.5248 0.000662449 22.4721 0 22.4186V1.57847C0.000927754 1.52522 0.0122 1.47268 0.0331728 1.42385C0.0541457 1.37502 0.0844083 1.33085 0.122232 1.29387C0.160056 1.25689 0.2047 1.22782 0.253614 1.20832C0.302528 1.18882 0.354754 1.17928 0.407308 1.18024H14.8362V5.91158H5.76239C5.70963 5.91049 5.65718 5.92001 5.60808 5.93958C5.55897 5.95916 5.51419 5.98841 5.47631 6.02563C5.43843 6.06286 5.40821 6.10732 5.38741 6.15646C5.3666 6.20559 5.35561 6.25842 5.35508 6.31188V9.13563C5.35561 9.18909 5.3666 9.24192 5.38741 9.29105C5.40821 9.34018 5.43843 9.38465 5.47631 9.42188C5.51419 9.4591 5.55897 9.48835 5.60808 9.50792C5.65718 9.5275 5.70963 9.53702 5.76239 9.53592H13.4564V14.2683H5.76239C5.70963 14.2672 5.65718 14.2767 5.60808 14.2963C5.55897 14.3158 5.51419 14.3451 5.47631 14.3823C5.43843 14.4195 5.40821 14.464 5.38741 14.5131C5.3666 14.5623 5.35561 14.6151 5.35508 14.6686V17.6821C5.35561 17.7356 5.3666 17.7884 5.38741 17.8376C5.40821 17.8867 5.43843 17.9312 5.47631 17.9684C5.51419 18.0056 5.55897 18.0349 5.60808 18.0544C5.65718 18.074 5.70963 18.0835 5.76239 18.0824H14.8331L14.8321 22.8189Z" fill="#999999"/>
<path d="M32.7491 22.8181H19.0391C18.9864 22.8192 18.9339 22.8097 18.8848 22.7901C18.8357 22.7706 18.7909 22.7413 18.7531 22.7041C18.7152 22.6669 18.685 22.6224 18.6642 22.5733C18.6434 22.5241 18.6324 22.4713 18.6318 22.4178V1.57763C18.6324 1.52416 18.6434 1.47134 18.6642 1.4222C18.685 1.37307 18.7152 1.3286 18.7531 1.29138C18.7909 1.25415 18.8357 1.2249 18.8848 1.20533C18.9339 1.18575 18.9864 1.17624 19.0391 1.17733H23.9941V18.0847H33.1585V22.4178C33.1578 22.4713 33.1467 22.524 33.1259 22.5731C33.105 22.6222 33.0748 22.6666 33.037 22.7038C32.9991 22.741 32.9544 22.7702 32.9053 22.7899C32.8563 22.8095 32.8039 22.8191 32.7512 22.8181" fill="#999999"/>
<path d="M50.4733 1.76162L44.1865 14.0027V22.4172C44.1859 22.4707 44.1749 22.5235 44.1541 22.5726C44.1333 22.6218 44.1031 22.6662 44.0652 22.7035C44.0274 22.7407 43.9826 22.7699 43.9335 22.7895C43.8844 22.8091 43.8319 22.8186 43.7792 22.8175H39.2305C39.1778 22.8186 39.1253 22.8091 39.0762 22.7895C39.0271 22.7699 38.9823 22.7407 38.9445 22.7035C38.9066 22.6662 38.8764 22.6218 38.8555 22.5726C38.8347 22.5235 38.8238 22.4707 38.8232 22.4172V14.0027L32.5273 1.76266C32.4964 1.701 32.4817 1.6323 32.4848 1.56322C32.4878 1.49414 32.5084 1.42702 32.5445 1.36838C32.5807 1.30974 32.6312 1.26155 32.6912 1.22851C32.7511 1.19546 32.8185 1.17866 32.8867 1.17975H38.0799L41.5247 8.95666L44.9247 1.17975H50.1179C50.1861 1.17857 50.2534 1.19526 50.3134 1.22818C50.3733 1.2611 50.4239 1.30915 50.4601 1.36767C50.4964 1.42619 50.5171 1.4932 50.5203 1.56222C50.5235 1.63124 50.509 1.69992 50.4784 1.76162" fill="#999999"/>
<path d="M69.0781 8.14202C69.0836 9.33737 68.7818 10.5135 68.2024 11.5548C67.6008 12.6321 66.7178 13.5205 65.6505 14.1227C64.4178 14.8051 63.0285 15.1433 61.6244 15.1028H58.3466V22.8199H53.3927C53.3399 22.821 53.2874 22.8115 53.2383 22.7919C53.1892 22.7723 53.1445 22.7431 53.1066 22.7058C53.0687 22.6686 53.0385 22.6241 53.0177 22.575C52.9969 22.5259 52.9859 22.473 52.9854 22.4196V1.57838C52.986 1.52496 52.997 1.4722 53.0178 1.42313C53.0387 1.37406 53.0689 1.32964 53.1068 1.29245C53.1446 1.25525 53.1893 1.22599 53.2384 1.20637C53.2874 1.18674 53.3399 1.17713 53.3927 1.17809H61.6315C63.0333 1.13754 64.4208 1.47279 65.6537 2.14994C66.7192 2.74861 67.6003 3.63456 68.1993 4.70957C68.7793 5.75619 69.0807 6.93761 69.0739 8.13789M63.7159 8.14511C63.7174 7.7667 63.6216 7.39441 63.4379 7.06493C63.2464 6.72422 62.9641 6.44499 62.6233 6.25918C62.2435 6.05085 61.8168 5.94632 61.3851 5.95586H58.3384V10.323H61.3851C61.8168 10.3325 62.2435 10.228 62.6233 10.0197C62.9628 9.83494 63.2449 9.55809 63.4379 9.22014C63.6221 8.89386 63.718 8.52408 63.7159 8.14821" fill="#999999"/>
<path d="M86.4671 22.8181H72.0382C71.9854 22.8191 71.933 22.8095 71.884 22.7898C71.835 22.7702 71.7902 22.741 71.7524 22.7038C71.7145 22.6666 71.6843 22.6221 71.6635 22.5731C71.6426 22.524 71.6315 22.4712 71.6309 22.4178V1.57761C71.6315 1.52419 71.6426 1.47142 71.6635 1.42235C71.6843 1.37328 71.7145 1.32887 71.7524 1.29167C71.7902 1.25447 71.835 1.22522 71.884 1.20559C71.933 1.18597 71.9854 1.17636 72.0382 1.17731H86.4671V5.91072H77.3963C77.3435 5.90963 77.2911 5.91914 77.242 5.93872C77.1929 5.95829 77.1481 5.98754 77.1102 6.02477C77.0723 6.06199 77.0421 6.10646 77.0213 6.15559C77.0005 6.20473 76.9895 6.25755 76.989 6.31102V9.13476C76.9895 9.18823 77.0005 9.24105 77.0213 9.29019C77.0421 9.33932 77.0723 9.38379 77.1102 9.42101C77.1481 9.45824 77.1929 9.48749 77.242 9.50706C77.2911 9.52664 77.3435 9.53615 77.3963 9.53506H85.0903V14.2674H77.3963C77.3435 14.2663 77.2911 14.2759 77.242 14.2954C77.1929 14.315 77.1481 14.3443 77.1102 14.3815C77.0723 14.4187 77.0421 14.4632 77.0213 14.5123C77.0005 14.5614 76.9895 14.6143 76.989 14.6677V17.6813C76.9895 17.7348 77.0005 17.7876 77.0213 17.8367C77.0421 17.8859 77.0723 17.9303 77.1102 17.9676C77.1481 18.0048 77.1929 18.034 77.242 18.0536C77.2911 18.0732 77.3435 18.0827 77.3963 18.0816H86.4671V22.8181Z" fill="#999999"/>
<path d="M106.105 15.9466C105.939 17.0247 105.592 18.0662 105.08 19.0262C104.622 19.8888 103.997 20.6486 103.241 21.2598C102.503 21.8464 101.664 22.2892 100.767 22.5659C99.8168 22.8577 98.8288 23.0027 97.8362 22.9961C96.7164 23.0284 95.6019 22.8293 94.5606 22.4109C93.5193 21.9924 92.573 21.3635 91.7795 20.5623C90.867 19.692 90.2316 18.5654 89.9548 17.327C89.6679 15.811 89.5375 14.2689 89.5658 12.7256V11.2709C89.5378 9.72523 89.6682 8.18078 89.9548 6.66234C90.2303 5.42129 90.8657 4.29205 91.7795 3.41973C92.5498 2.64055 93.4644 2.02314 94.4708 1.60292C95.5422 1.18488 96.6832 0.980642 97.8311 1.00144C98.847 0.989476 99.8586 1.13704 100.83 1.43888C101.715 1.71875 102.541 2.16153 103.268 2.74501C104.01 3.3541 104.628 4.10535 105.084 4.95592C105.601 5.9195 105.947 6.96686 106.109 8.051H100.959C100.874 8.05051 100.79 8.02273 100.721 7.97162C100.652 7.92051 100.601 7.84866 100.574 7.76626C100.41 7.23953 100.124 6.76001 99.7404 6.36728C99.4835 6.14216 99.1854 5.9706 98.863 5.86243C98.5406 5.75426 98.2003 5.71161 97.8616 5.73692C97.4368 5.72992 97.0154 5.81615 96.6265 5.98968C96.2895 6.13732 95.9901 6.36063 95.7508 6.64274C95.5513 6.89839 95.397 7.18704 95.2946 7.49595C95.1495 7.98874 95.0589 8.49636 95.0247 9.00945C94.9568 9.68693 94.9229 10.6842 94.9229 12.0014C94.891 13.2337 94.9561 14.4667 95.1174 15.6886C95.2024 16.2795 95.4171 16.8436 95.7457 17.3393C96.0008 17.6507 96.3251 17.8964 96.692 18.0564C97.0589 18.2163 97.458 18.286 97.8566 18.2596C98.5353 18.3058 99.2048 18.0793 99.72 17.6292C100.111 17.2397 100.402 16.7595 100.569 16.2303C100.596 16.1479 100.647 16.076 100.716 16.0249C100.785 15.9738 100.869 15.946 100.954 15.9455L106.105 15.9466Z" fill="#999999"/>
<path d="M123.998 16.2005C124.029 17.515 123.632 18.8032 122.868 19.8661C122.085 20.9187 121.027 21.7284 119.813 22.2039C118.463 22.746 117.022 23.0155 115.57 22.9973C113.976 23.0271 112.386 22.8121 110.855 22.3597C109.507 21.9281 108.284 21.1691 107.292 20.1488L110.463 17.0042C110.538 16.9333 110.636 16.8927 110.738 16.8902C110.84 16.8878 110.94 16.9235 111.017 16.9908C111.563 17.4199 112.19 17.7298 112.859 17.9007C113.752 18.1451 114.674 18.2672 115.599 18.2639C117.684 18.2639 118.727 17.616 118.727 16.3202C118.742 16.0889 118.711 15.8568 118.637 15.6377C118.562 15.4185 118.445 15.2167 118.293 15.0439C117.889 14.6976 117.384 14.4944 116.856 14.4652L114.222 14.0938C112.591 13.9646 111.049 13.2912 109.836 12.1789C109.312 11.5925 108.909 10.9055 108.652 10.1585C108.395 9.4115 108.289 8.6198 108.339 7.83035C108.32 6.58596 108.655 5.36227 109.305 4.30608C109.979 3.24415 110.942 2.40142 112.076 1.87851C113.403 1.26804 114.849 0.968637 116.305 1.0026C117.735 0.976128 119.159 1.18519 120.523 1.62161C121.706 2.02073 122.783 2.69159 123.668 3.58183L120.574 6.65318C120.499 6.72464 120.401 6.76529 120.298 6.7672C120.195 6.76911 120.095 6.73213 120.018 6.6635C119.579 6.27863 119.055 6.0065 118.49 5.87013C117.722 5.70971 116.94 5.63498 116.156 5.64728C115.45 5.59692 114.752 5.81385 114.195 6.25598C113.989 6.42408 113.821 6.6362 113.705 6.87727C113.588 7.11834 113.526 7.38245 113.521 7.65083C113.521 7.84029 113.559 8.02782 113.634 8.20151C113.708 8.37521 113.818 8.53128 113.955 8.65983C114.373 9.03148 114.898 9.25561 115.452 9.29845L118.086 9.65438C119.667 9.78575 121.169 10.4132 122.381 11.4495C122.95 11.9944 123.375 12.6756 123.616 13.4304C123.888 14.3267 124.017 15.261 123.998 16.1984" fill="#999999"/>
<path d="M172.872 22.9998C171.374 22.9998 169.757 22.2954 168.409 21.022H168.289L167.9 22.6205H164.455V1H168.858V6.44577L168.738 8.88417C170.056 7.80043 171.733 7.06891 173.381 7.06891C177.514 7.06891 180 10.1305 180 14.7634C180 19.9924 176.556 22.9998 172.872 22.9998ZM171.883 19.7215C173.92 19.7215 175.477 18.1501 175.477 14.8447C175.477 11.9457 174.459 10.3472 172.153 10.3472C171.015 10.3472 169.996 10.862 168.858 11.9186V18.5836C169.906 19.4235 170.985 19.7215 171.883 19.7215Z" fill="white"/>
<path d="M152.491 22.9998C149.496 22.9998 147.519 21.0761 147.519 18.5023C147.519 15.2511 150.424 13.5442 157.194 12.8939C157.104 11.4038 156.385 10.2659 154.318 10.2659C152.761 10.2659 151.263 10.889 149.706 11.7018L148.118 9.07376C150.095 7.96293 152.491 7.06885 155.127 7.06885C159.38 7.06885 161.567 9.37179 161.567 13.7609V22.6205H157.972L157.673 20.9949H157.553C156.085 22.1328 154.408 22.9998 152.491 22.9998ZM153.929 19.884C155.187 19.884 156.115 19.3422 157.194 18.3939V15.3323C153.09 15.7929 151.712 16.8225 151.712 18.1771C151.712 19.3693 152.641 19.884 153.929 19.884Z" fill="white"/>
<path d="M132 22.6206V2.54443H136.433V19.261H145.449V22.6206H132Z" fill="white"/>
</svg>
